<svg width="184" height="45" viewBox="0 0 184 45" fill="none" xmlns="http://www.w3.org/2000/svg">
<path d="M-8.88109e-05 34.9091V0H13.7726C16.409 0 18.659 0.471591 20.5226 1.41477C22.3976 2.34659 23.8238 3.67045 24.801 5.38636C25.7897 7.09091 26.284 9.09659 26.284 11.4034C26.284 13.7216 25.784 15.7159 24.784 17.3864C23.784 19.0455 22.3351 20.3182 20.4374 21.2045C18.551 22.0909 16.267 22.5341 13.5851 22.5341H4.36355V16.6023H12.392C13.801 16.6023 14.9715 16.4091 15.9033 16.0227C16.8351 15.6364 17.5283 15.0568 17.9829 14.2841C18.4488 13.5114 18.6817 12.5511 18.6817 11.4034C18.6817 10.2443 18.4488 9.26705 17.9829 8.47159C17.5283 7.67614 16.8295 7.07386 15.8863 6.66477C14.9545 6.24432 13.7783 6.03409 12.3579 6.03409H7.38059V34.9091H-8.88109e-05ZM18.8522 19.0227L27.5283 34.9091H19.3806L10.892 19.0227H18.8522ZM48.1533 23.7614V8.72727H55.4147V34.9091H48.4431V30.1534H48.1704C47.5795 31.6875 46.5965 32.9205 45.2215 33.8523C43.8579 34.7841 42.1931 35.25 40.2272 35.25C38.4772 35.25 36.9374 34.8523 35.6079 34.0568C34.2783 33.2614 33.2385 32.1307 32.4885 30.6648C31.7499 29.1989 31.3749 27.4432 31.3635 25.3977V8.72727H38.6249V24.1023C38.6363 25.6477 39.051 26.8693 39.8692 27.767C40.6874 28.6648 41.784 29.1136 43.159 29.1136C44.034 29.1136 44.8522 28.9148 45.6135 28.517C46.3749 28.108 46.9885 27.5057 47.4545 26.7102C47.9317 25.9148 48.1647 24.9318 48.1533 23.7614ZM68.4843 19.7727V34.9091H61.2229V8.72727H68.1434V13.3466H68.4502C69.0297 11.8239 70.0013 10.6193 71.365 9.73295C72.7286 8.83523 74.382 8.38636 76.3252 8.38636C78.1434 8.38636 79.7286 8.78409 81.0809 9.57955C82.4332 10.375 83.4843 11.5114 84.2343 12.9886C84.9843 14.4545 85.3593 16.2045 85.3593 18.2386V34.9091H78.0979V19.5341C78.1093 17.9318 77.7002 16.6818 76.8707 15.7841C76.0411 14.875 74.8991 14.4205 73.4445 14.4205C72.4672 14.4205 71.6036 14.6307 70.8536 15.0511C70.115 15.4716 69.5354 16.0852 69.115 16.892C68.7059 17.6875 68.4957 18.6477 68.4843 19.7727ZM96.2471 34.9091L89.1221 8.72727H96.4687L100.525 26.3182H100.764L104.991 8.72727H112.202L116.497 26.2159H116.719L120.707 8.72727H128.037L120.929 34.9091H113.241L108.741 18.4432H108.418L103.918 34.9091H96.2471ZM139.376 35.4034C137.706 35.4034 136.217 35.1136 134.91 34.5341C133.604 33.9432 132.57 33.0739 131.808 31.9261C131.058 30.767 130.683 29.3239 130.683 27.5966C130.683 26.142 130.95 24.9205 131.484 23.9318C132.018 22.9432 132.746 22.1477 133.666 21.5455C134.587 20.9432 135.632 20.4886 136.802 20.1818C137.984 19.875 139.223 19.6591 140.518 19.5341C142.041 19.375 143.268 19.2273 144.2 19.0909C145.132 18.9432 145.808 18.7273 146.229 18.4432C146.649 18.1591 146.859 17.7386 146.859 17.1818V17.0795C146.859 16 146.518 15.1648 145.837 14.5739C145.166 13.983 144.212 13.6875 142.973 13.6875C141.666 13.6875 140.626 13.9773 139.854 14.5568C139.081 15.125 138.57 15.8409 138.32 16.7045L131.604 16.1591C131.945 14.5682 132.615 13.1932 133.615 12.0341C134.615 10.8636 135.905 9.96591 137.484 9.34091C139.075 8.70455 140.916 8.38636 143.007 8.38636C144.462 8.38636 145.854 8.55682 147.183 8.89773C148.524 9.23864 149.712 9.76705 150.746 10.483C151.791 11.1989 152.615 12.1193 153.217 13.2443C153.82 14.358 154.121 15.6932 154.121 17.25V34.9091H147.234V31.2784H147.03C146.609 32.0966 146.047 32.8182 145.342 33.4432C144.638 34.0568 143.791 34.5398 142.802 34.892C141.814 35.233 140.672 35.4034 139.376 35.4034ZM141.456 30.392C142.524 30.392 143.467 30.1818 144.285 29.7614C145.104 29.3295 145.746 28.75 146.212 28.0227C146.677 27.2955 146.91 26.4716 146.91 25.5511V22.7727C146.683 22.9205 146.371 23.0568 145.973 23.1818C145.587 23.2955 145.149 23.4034 144.66 23.5057C144.172 23.5966 143.683 23.6818 143.195 23.7614C142.706 23.8295 142.263 23.892 141.865 23.9489C141.013 24.0739 140.268 24.2727 139.632 24.5455C138.996 24.8182 138.501 25.1875 138.149 25.6534C137.797 26.108 137.621 26.6761 137.621 27.358C137.621 28.3466 137.979 29.1023 138.695 29.625C139.422 30.1364 140.342 30.392 141.456 30.392ZM163.3 44.7273C162.379 44.7273 161.516 44.6534 160.709 44.5057C159.913 44.3693 159.254 44.1932 158.731 43.9773L160.368 38.5568C161.22 38.8182 161.987 38.9602 162.669 38.983C163.362 39.0057 163.959 38.8466 164.459 38.5057C164.97 38.1648 165.385 37.5852 165.703 36.767L166.129 35.6591L156.737 8.72727H164.373L169.794 27.9545H170.067L175.538 8.72727H183.226L173.05 37.7386C172.561 39.1477 171.896 40.375 171.055 41.4205C170.226 42.4773 169.175 43.2898 167.902 43.858C166.629 44.4375 165.095 44.7273 163.3 44.7273Z" fill="black"/>
</svg>
