<svg width="19" height="20" viewBox="0 0 19 20" fill="none" xmlns="http://www.w3.org/2000/svg">
<path d="M5.26628 13.0148C5.29254 13.1097 5.33725 13.1986 5.39785 13.2762C5.45845 13.3539 5.53375 13.4189 5.61946 13.4674C5.70517 13.516 5.7996 13.5472 5.89737 13.5593C5.99514 13.5713 6.09433 13.564 6.18928 13.5378C6.28422 13.5115 6.37307 13.4668 6.45073 13.4062C6.5284 13.3456 6.59337 13.2703 6.64194 13.1846C6.6905 13.0989 6.72171 13.0044 6.73378 12.9067C6.74585 12.8089 6.73854 12.7097 6.71228 12.6148L5.26628 13.0148ZM0.960278 2.47476C0.864959 2.44692 0.76506 2.43829 0.666378 2.44936C0.567695 2.46043 0.472193 2.49099 0.385414 2.53926C0.298635 2.58753 0.222305 2.65256 0.160855 2.73056C0.0994041 2.80857 0.0540556 2.898 0.0274405 2.99366C0.000825407 3.08933 -0.00652642 3.18934 0.00581164 3.28787C0.0181497 3.3864 0.049932 3.4815 0.0993144 3.56765C0.148697 3.65381 0.214696 3.72929 0.293483 3.78974C0.37227 3.85018 0.462276 3.89438 0.558279 3.91976L0.960278 2.47476ZM17.9483 13.4748C18.0459 13.4522 18.1381 13.4103 18.2193 13.3515C18.3004 13.2927 18.369 13.2182 18.4209 13.1324C18.4728 13.0467 18.507 12.9514 18.5215 12.8522C18.5359 12.753 18.5304 12.652 18.5051 12.555C18.4798 12.458 18.4354 12.367 18.3744 12.2875C18.3133 12.208 18.237 12.1415 18.1499 12.092C18.0627 12.0424 17.9665 12.0109 17.867 11.9992C17.7674 11.9875 17.6665 11.9958 17.5703 12.0238L17.9483 13.4748ZM7.95728 15.3088C8.26728 16.4288 7.58728 17.6118 6.38328 17.9248L6.76028 19.3758C8.73728 18.8628 9.94528 16.8738 9.40328 14.9088L7.95728 15.3088ZM6.38328 17.9248C5.17128 18.2398 3.95528 17.5358 3.64328 16.4058L2.19728 16.8058C2.73728 18.7608 4.79128 19.8878 6.76028 19.3758L6.38328 17.9248ZM3.64328 16.4058C3.33328 15.2858 4.01328 14.1028 5.21728 13.7898L4.84028 12.3398C2.86328 12.8528 1.65428 14.8408 2.19728 16.8058L3.64328 16.4058ZM5.21728 13.7898C6.42928 13.4748 7.64528 14.1788 7.95728 15.3088L9.40328 14.9088C8.86328 12.9538 6.80928 11.8268 4.84028 12.3388L5.21728 13.7898ZM6.71228 12.6148L4.56028 4.82476L3.11428 5.22476L5.26628 13.0148L6.71228 12.6148ZM2.66428 2.94676L0.960278 2.47476L0.558279 3.91976L2.26328 4.39276L2.66428 2.94676ZM4.56028 4.82476C4.43313 4.37475 4.19171 3.96529 3.85947 3.63621C3.52723 3.30712 3.11549 3.06961 2.66428 2.94676L2.26528 4.39276C2.69028 4.51076 3.00628 4.83376 3.11428 5.22476L4.56028 4.82476ZM8.87028 15.8348L17.9483 13.4748L17.5713 12.0238L8.49228 14.3838L8.87028 15.8348Z" fill="black"/>
<path d="M7.32526 6.47976C6.84026 4.72476 6.59826 3.84676 7.01026 3.15576C7.42126 2.46376 8.32626 2.22876 10.1363 1.75776L12.0563 1.25976C13.8663 0.789762 14.7713 0.553762 15.4843 0.952762C16.1973 1.35276 16.4403 2.22976 16.9243 3.98576L17.4393 5.84776C17.9243 7.60276 18.1673 8.48076 17.7553 9.17276C17.3433 9.86376 16.4383 10.0998 14.6283 10.5698L12.7083 11.0688C10.8983 11.5388 9.99326 11.7738 9.28026 11.3748C8.56726 10.9748 8.32526 10.0978 7.84026 8.34276L7.32526 6.47976Z" stroke="black" stroke-width="1.5"/>
</svg>
