<svg width="15" height="15" viewBox="0 0 15 15" fill="none" xmlns="http://www.w3.org/2000/svg">
<path d="M14.0833 3.25H6.58325M9.08325 11.5833H1.58325" stroke="black" stroke-width="1.5" stroke-linecap="round" stroke-linejoin="round"/>
<path d="M11.5833 14.0833C12.964 14.0833 14.0833 12.9641 14.0833 11.5833C14.0833 10.2026 12.964 9.08334 11.5833 9.08334C10.2025 9.08334 9.08325 10.2026 9.08325 11.5833C9.08325 12.9641 10.2025 14.0833 11.5833 14.0833Z" stroke="black" stroke-width="1.5" stroke-linecap="round" stroke-linejoin="round"/>
<path d="M3.25 5.75C4.63071 5.75 5.75 4.63071 5.75 3.25C5.75 1.86929 4.63071 0.75 3.25 0.75C1.86929 0.75 0.75 1.86929 0.75 3.25C0.75 4.63071 1.86929 5.75 3.25 5.75Z" stroke="black" stroke-width="1.5" stroke-linecap="round" stroke-linejoin="round"/>
</svg>
