<svg width="24" height="24" viewBox="0 0 24 24" fill="none" xmlns="http://www.w3.org/2000/svg">
<path fill-rule="evenodd" clip-rule="evenodd" d="M9 1.25C7.74022 1.25 6.53204 1.75044 5.64124 2.64124C4.75045 3.53204 4.25 4.74022 4.25 6C4.25 7.25978 4.75045 8.46796 5.64124 9.35876C6.53204 10.2496 7.74022 10.75 9 10.75C10.2598 10.75 11.468 10.2496 12.3588 9.35876C13.2496 8.46796 13.75 7.25978 13.75 6C13.75 4.74022 13.2496 3.53204 12.3588 2.64124C11.468 1.75044 10.2598 1.25 9 1.25ZM5.75 6C5.75 5.13805 6.09241 4.3114 6.7019 3.7019C7.3114 3.09241 8.13805 2.75 9 2.75C9.86195 2.75 10.6886 3.09241 11.2981 3.7019C11.9076 4.3114 12.25 5.13805 12.25 6C12.25 6.86195 11.9076 7.6886 11.2981 8.2981C10.6886 8.90759 9.86195 9.25 9 9.25C8.13805 9.25 7.3114 8.90759 6.7019 8.2981C6.09241 7.6886 5.75 6.86195 5.75 6Z" fill="black"/>
<path d="M15 2.25C14.8011 2.25 14.6103 2.32902 14.4697 2.46967C14.329 2.61032 14.25 2.80109 14.25 3C14.25 3.19891 14.329 3.38968 14.4697 3.53033C14.6103 3.67098 14.8011 3.75 15 3.75C15.5967 3.75 16.169 3.98705 16.591 4.40901C17.0129 4.83097 17.25 5.40326 17.25 6C17.25 6.59674 17.0129 7.16903 16.591 7.59099C16.169 8.01295 15.5967 8.25 15 8.25C14.8011 8.25 14.6103 8.32902 14.4697 8.46967C14.329 8.61032 14.25 8.80109 14.25 9C14.25 9.19891 14.329 9.38968 14.4697 9.53033C14.6103 9.67098 14.8011 9.75 15 9.75C15.9946 9.75 16.9484 9.35491 17.6517 8.65165C18.3549 7.94839 18.75 6.99456 18.75 6C18.75 5.00544 18.3549 4.05161 17.6517 3.34835C16.9484 2.64509 15.9946 2.25 15 2.25Z" fill="black"/>
<path fill-rule="evenodd" clip-rule="evenodd" d="M3.678 13.52C5.078 12.72 6.961 12.25 9 12.25C11.039 12.25 12.922 12.72 14.322 13.52C15.7 14.308 16.75 15.51 16.75 17C16.75 18.49 15.7 19.692 14.322 20.48C12.922 21.28 11.039 21.75 9 21.75C6.961 21.75 5.078 21.28 3.678 20.48C2.3 19.692 1.25 18.49 1.25 17C1.25 15.51 2.3 14.308 3.678 13.52ZM4.422 14.823C3.267 15.483 2.75 16.28 2.75 17C2.75 17.72 3.267 18.517 4.422 19.177C5.556 19.825 7.173 20.25 9 20.25C10.827 20.25 12.444 19.825 13.578 19.177C14.733 18.517 15.25 17.719 15.25 17C15.25 16.281 14.733 15.483 13.578 14.823C12.444 14.175 10.827 13.75 9 13.75C7.173 13.75 5.556 14.175 4.422 14.823Z" fill="black"/>
<path d="M18.16 13.267C17.9656 13.2246 17.7623 13.2611 17.5948 13.3685C17.4274 13.476 17.3095 13.6456 17.267 13.84C17.2246 14.0344 17.2611 14.2377 17.3686 14.4052C17.476 14.5726 17.6456 14.6906 17.84 14.733C18.632 14.906 19.265 15.205 19.683 15.547C20.101 15.889 20.25 16.224 20.25 16.5C20.25 16.75 20.13 17.045 19.797 17.354C19.462 17.665 18.947 17.952 18.284 18.152C18.1897 18.1804 18.1018 18.227 18.0255 18.2893C17.9492 18.3517 17.8859 18.4284 17.8392 18.5152C17.7926 18.6019 17.7635 18.6971 17.7536 18.7951C17.7436 18.8931 17.7532 18.9921 17.7815 19.0865C17.8099 19.1808 17.8566 19.2687 17.9189 19.345C17.9812 19.4213 18.0579 19.4846 18.1447 19.5313C18.2315 19.5779 18.3266 19.6071 18.4246 19.617C18.5226 19.6269 18.6217 19.6174 18.716 19.589C19.539 19.341 20.274 18.958 20.818 18.453C21.364 17.946 21.75 17.279 21.75 16.5C21.75 15.635 21.276 14.912 20.633 14.386C19.989 13.859 19.122 13.478 18.16 13.267Z" fill="black"/>
</svg>
