<svg width="20" height="22" viewBox="0 0 20 22" fill="none" xmlns="http://www.w3.org/2000/svg">
<path d="M16.7486 8.71V8.005C16.7486 4.136 13.7246 1 9.9986 1C6.2726 1 3.2486 4.136 3.2486 8.005V8.71C3.2498 9.55155 3.00964 10.3758 2.5566 11.085L1.4486 12.81C0.437597 14.385 1.2096 16.526 2.9686 17.024C7.5647 18.327 12.4325 18.327 17.0286 17.024C18.7876 16.526 19.5596 14.385 18.5486 12.811L17.4406 11.086C16.9872 10.3769 16.7467 9.55265 16.7476 8.711L16.7486 8.71Z" stroke="#181818" stroke-width="2"/>
<path opacity="0.5" d="M5.49854 18C6.15354 19.748 7.92054 21 9.99854 21C12.0765 21 13.8435 19.748 14.4985 18" stroke="#181818" stroke-width="2" stroke-linecap="round"/>
</svg>
