<svg width="24" height="24" viewBox="0 0 24 24" fill="none" xmlns="http://www.w3.org/2000/svg">
<path fill-rule="evenodd" clip-rule="evenodd" d="M5.07897 5.06899C8.87397 1.27899 15.044 1.31899 18.862 5.13799C22.682 8.95799 22.722 15.131 18.926 18.926C15.13 22.721 8.95797 22.682 5.13797 18.862C4.06334 17.792 3.25141 16.4875 2.76593 15.0508C2.28045 13.6141 2.13465 12.0845 2.33997 10.582C2.36689 10.3848 2.47104 10.2064 2.62951 10.086C2.78798 9.96559 2.98778 9.91307 3.18497 9.93999C3.38216 9.96691 3.56058 10.0711 3.68098 10.2295C3.80138 10.388 3.85389 10.5878 3.82697 10.785C3.65266 12.0583 3.77605 13.3547 4.18746 14.5723C4.59887 15.7898 5.28707 16.8954 6.19797 17.802C9.44297 21.046 14.666 21.065 17.866 17.866C21.065 14.666 21.046 9.44299 17.802 6.19799C14.559 2.95599 9.33897 2.93499 6.13897 6.12999L6.88697 6.13299C6.98546 6.13345 7.0829 6.1533 7.17372 6.19142C7.26454 6.22954 7.34696 6.28517 7.41628 6.35514C7.4856 6.42511 7.54046 6.50804 7.57772 6.59921C7.61499 6.69038 7.63393 6.788 7.63347 6.88649C7.63301 6.98498 7.61316 7.08242 7.57504 7.17324C7.53693 7.26406 7.4813 7.34648 7.41133 7.4158C7.34136 7.48511 7.25842 7.53997 7.16725 7.57724C7.07608 7.61451 6.97846 7.63345 6.87997 7.63299L4.33397 7.62099C4.13627 7.61994 3.94699 7.54087 3.80728 7.40098C3.66758 7.26109 3.58876 7.07169 3.58797 6.87399L3.57497 4.32999C3.57445 4.2315 3.59333 4.13387 3.63053 4.04267C3.66774 3.95148 3.72254 3.8685 3.79181 3.79849C3.86109 3.72847 3.94347 3.67279 4.03427 3.63461C4.12506 3.59644 4.22248 3.57652 4.32097 3.57599C4.41946 3.57547 4.5171 3.59434 4.60829 3.63155C4.69949 3.66876 4.78246 3.72356 4.85248 3.79283C4.92249 3.8621 4.97818 3.94449 5.01635 4.03528C5.05453 4.12608 5.07445 4.2235 5.07497 4.32199L5.07897 5.06899ZM11.999 7.24899C12.1979 7.24899 12.3887 7.32801 12.5293 7.46866C12.67 7.60931 12.749 7.80008 12.749 7.99899V11.689L15.03 13.969C15.1016 14.0381 15.1588 14.1209 15.1982 14.2124C15.2375 14.3038 15.2582 14.4022 15.2592 14.5018C15.2601 14.6014 15.2411 14.7002 15.2035 14.7924C15.1658 14.8846 15.1102 14.9683 15.0398 15.0388C14.9694 15.1092 14.8857 15.165 14.7935 15.2027C14.7014 15.2405 14.6026 15.2595 14.503 15.2587C14.4034 15.2579 14.305 15.2372 14.2135 15.198C14.122 15.1587 14.0392 15.1016 13.97 15.03L11.25 12.31V7.99999C11.25 7.80108 11.329 7.61031 11.4696 7.46966C11.6103 7.32901 11.8011 7.24999 12 7.24999" fill="black"/>
</svg>
