<svg width="22" height="18" viewBox="0 0 22 18" fill="none" xmlns="http://www.w3.org/2000/svg">
<path d="M15.75 16.7501C16.2804 16.7501 16.7891 16.5394 17.1642 16.1643C17.5393 15.7892 17.75 15.2805 17.75 14.7501C17.75 14.2196 17.5393 13.7109 17.1642 13.3359C16.7891 12.9608 16.2804 12.7501 15.75 12.7501C15.2196 12.7501 14.7109 12.9608 14.3358 13.3359C13.9607 13.7109 13.75 14.2196 13.75 14.7501C13.75 15.2805 13.9607 15.7892 14.3358 16.1643C14.7109 16.5394 15.2196 16.7501 15.75 16.7501ZM5.75 16.7501C6.28043 16.7501 6.78914 16.5394 7.16421 16.1643C7.53929 15.7892 7.75 15.2805 7.75 14.7501C7.75 14.2196 7.53929 13.7109 7.16421 13.3359C6.78914 12.9608 6.28043 12.7501 5.75 12.7501C5.21957 12.7501 4.71086 12.9608 4.33579 13.3359C3.96071 13.7109 3.75 14.2196 3.75 14.7501C3.75 15.2805 3.96071 15.7892 4.33579 16.1643C4.71086 16.5394 5.21957 16.7501 5.75 16.7501Z" stroke="black" stroke-width="1.5" stroke-linecap="round" stroke-linejoin="round"/>
<path d="M17.75 7.75007H20.75M20.75 7.75007V9.75007C20.75 12.1071 20.75 13.2851 20.018 14.0181C19.531 14.5051 18.847 14.6681 17.75 14.7221M20.75 7.75007L19.474 5.38007C18.784 4.09807 18.439 3.45707 17.846 3.10407C17.254 2.75007 16.527 2.75007 15.071 2.75007H13.25M3.75 14.7221C2.653 14.6681 1.97 14.5051 1.482 14.0181C0.75 13.2851 0.75 12.1071 0.75 9.75007V5.75007C0.75 3.39307 0.75 2.21407 1.482 1.48207C2.214 0.75007 3.393 0.750071 5.75 0.750071H9.05C10.167 0.750071 10.725 0.75007 11.177 0.89707C11.6272 1.04337 12.0364 1.29415 12.3712 1.62889C12.7059 1.96363 12.9567 2.37285 13.103 2.82307C13.25 3.27507 13.25 3.83307 13.25 4.95007C13.25 6.17007 13.25 6.78107 12.916 7.19407C12.85 7.2754 12.776 7.3494 12.694 7.41607C12.281 7.75007 11.671 7.75007 10.45 7.75007H6.75M13.75 14.7501H7.75" stroke="black" stroke-width="1.5" stroke-linecap="round" stroke-linejoin="round"/>
<path d="M8.75 9.75007C8.75 9.75007 8.078 9.19407 7.487 8.66607C7.07 8.33007 6.75 8.04307 6.75 7.75507C6.75 7.50007 7 7.26307 7.406 6.89107C7.982 6.41207 8.75 5.75007 8.75 5.75007" stroke="black" stroke-width="1.5" stroke-linecap="round" stroke-linejoin="round"/>
</svg>
