<svg width="24" height="24" viewBox="0 0 24 24" fill="none" xmlns="http://www.w3.org/2000/svg">
<path d="M9.53603 3.91C9.53603 2.855 10.486 2 11.66 2C12.833 2 13.784 2.855 13.784 3.91C13.784 4.405 13.604 4.857 13.292 5.197C12.695 5.847 11.802 6.502 11.802 7.345V7.63M11.802 7.63C12.5417 7.61824 13.2676 7.83092 13.884 8.24L21.317 13.25C22.623 14.132 21.93 16 20.297 16H18M11.802 7.63C11.0686 7.63476 10.3537 7.86097 9.75103 8.279L2.65503 13.27C1.38303 14.165 2.08703 16 3.70303 16H6.00003" stroke="black" stroke-width="1.5" stroke-linecap="round"/>
<path d="M6 18C6 16.114 6 15.172 6.586 14.586C7.172 14 8.114 14 10 14H14C15.886 14 16.828 14 17.414 14.586C18 15.172 18 16.114 18 18C18 19.886 18 20.828 17.414 21.414C16.828 22 15.886 22 14 22H10C8.114 22 7.172 22 6.586 21.414C6 20.828 6 19.886 6 18Z" stroke="black" stroke-width="1.5"/>
</svg>
