<svg width="22" height="25" viewBox="0 0 22 25" fill="none" xmlns="http://www.w3.org/2000/svg">
<path d="M10.8 0.149597C12.2322 0.149597 13.6057 0.718932 14.6184 1.73163C15.6311 2.74432 16.2004 4.11782 16.2004 5.54999V6.1496H21.4504V21.3C21.4504 22.1354 21.1183 22.9368 20.5276 23.5275C19.9368 24.1183 19.1355 24.4504 18.3 24.4504H3.30005C2.46462 24.4504 1.66325 24.1183 1.07251 23.5275C0.48177 22.9368 0.149658 22.1354 0.149658 21.3V6.1496H5.39966V5.54999C5.39966 4.11782 5.96899 2.74432 6.98169 1.73163C7.99439 0.718932 9.36788 0.149597 10.8 0.149597ZM1.95044 21.3C1.95044 21.658 2.0918 22.0019 2.34497 22.2551C2.59814 22.5082 2.94201 22.6496 3.30005 22.6496H18.3C18.6581 22.6496 19.002 22.5082 19.2551 22.2551C19.5083 22.0019 19.6497 21.658 19.6497 21.3V7.95038H1.95044V21.3ZM10.8 1.95038C9.84527 1.95038 8.92928 2.32896 8.25415 3.00409C7.57902 3.67922 7.20044 4.59521 7.20044 5.54999V6.1496H14.3997V5.54999C14.3997 4.59521 14.0211 3.67922 13.3459 3.00409C12.6708 2.32896 11.7548 1.95038 10.8 1.95038Z" fill="black" stroke="black" stroke-width="0.3"/>
</svg>
